<?xml version="1.0" standalone="no"?>
<!DOCTYPE svg PUBLIC "-//W3C//DTD SVG 20010904//EN"
 "http://www.w3.org/TR/2001/REC-SVG-20010904/DTD/svg10.dtd">
<svg version="1.0" xmlns="http://www.w3.org/2000/svg"
 width="512.000000pt" height="512.000000pt" viewBox="0 0 512.000000 512.000000"
 preserveAspectRatio="xMidYMid meet">
<metadata>
Created by potrace 1.14, written by Peter Selinger 2001-2017
</metadata>
<g transform="translate(0.000000,512.000000) scale(0.100000,-0.100000)"
fill="#000000" stroke="none">
<path d="M1887 5078 c-6 -4 -8 -8 -4 -8 4 0 3 -9 -3 -21 -7 -11 -14 -33 -16
-47 -3 -15 -9 -31 -15 -38 -5 -6 -6 -14 -2 -17 3 -4 1 -13 -5 -20 -7 -8 -9
-17 -5 -20 3 -4 1 -7 -6 -7 -7 0 -9 -5 -6 -10 4 -6 2 -17 -5 -25 -6 -7 -13
-25 -16 -39 -2 -14 -9 -38 -16 -53 -6 -16 -13 -37 -15 -47 -2 -11 -8 -25 -14
-33 -6 -7 -9 -13 -5 -13 3 0 0 -15 -7 -32 -8 -18 -15 -36 -15 -40 -1 -5 -2 -9
-3 -10 0 -2 -2 -11 -4 -21 -2 -10 -7 -26 -11 -35 -4 -9 -8 -19 -8 -22 -1 -3
-7 -15 -14 -26 -6 -12 -9 -24 -6 -26 2 -3 -1 -18 -7 -34 -7 -16 -13 -32 -14
-36 -2 -5 -3 -9 -4 -10 -2 -2 -4 -14 -7 -27 -2 -14 -9 -30 -14 -36 -5 -7 -7
-15 -3 -18 3 -4 1 -7 -6 -7 -7 0 -9 -5 -6 -10 4 -6 1 -17 -5 -25 -7 -8 -10
-15 -7 -15 3 0 -5 -30 -19 -67 -14 -38 -32 -88 -39 -113 -7 -25 -23 -72 -35
-105 -12 -33 -23 -67 -24 -75 -4 -28 -19 -75 -25 -80 -4 -3 -12 -27 -19 -55
-7 -27 -17 -51 -22 -53 -4 -2 -6 -12 -3 -22 3 -11 0 -20 -6 -20 -5 0 -8 -7 -5
-15 4 -8 1 -15 -7 -15 -7 0 -10 -3 -6 -6 3 -3 -1 -25 -10 -47 -8 -23 -16 -46
-17 -52 -2 -5 -6 -18 -10 -27 -4 -9 -9 -22 -10 -30 -15 -63 -20 -78 -27 -78
-5 0 -6 -7 -3 -15 4 -8 1 -15 -6 -15 -6 0 -8 -4 -5 -10 3 -5 0 -20 -7 -32 -7
-13 -11 -27 -10 -32 2 -4 -2 -14 -7 -20 -11 -13 -19 -45 -20 -79 -1 -10 -5
-16 -9 -13 -4 2 -8 -5 -9 -17 -1 -19 -20 -79 -40 -127 -3 -8 -7 -17 -7 -20 -1
-3 -5 -11 -9 -17 -5 -7 -6 -13 -3 -13 2 0 -18 -66 -46 -147 -77 -228 -77 -234
-33 -238 34 -3 128 -14 165 -20 14 -2 63 -7 110 -10 47 -3 96 -8 110 -10 79
-12 352 -24 667 -29 l252 -4 18 52 c9 28 45 134 79 236 59 178 62 184 74 155
6 -16 14 -41 16 -54 3 -13 10 -33 15 -43 6 -11 17 -43 26 -71 8 -29 21 -65 28
-82 8 -16 23 -63 34 -104 11 -41 26 -78 33 -83 12 -7 248 -3 423 7 44 3 130 7
190 10 61 3 119 7 130 10 11 2 58 7 105 10 47 3 101 8 120 12 19 3 65 7 102 8
37 2 70 5 75 8 4 3 37 8 73 12 36 4 79 13 97 20 l32 13 -101 304 c-55 167
-102 310 -105 318 -3 8 -7 20 -9 27 -6 32 -38 119 -47 131 -5 6 -7 12 -4 12 5
0 -78 257 -100 310 -3 8 -7 20 -9 27 -6 32 -38 119 -47 131 -5 6 -7 12 -4 12
4 0 -11 51 -32 113 -22 61 -75 225 -120 362 -45 138 -84 257 -88 265 -3 8 -7
20 -9 27 -7 34 -128 390 -135 399 -11 13 -1371 15 -1392 2z"/>
<path d="M4086 3061 c6 -6 19 -13 30 -15 10 -3 47 -13 82 -24 34 -11 62 -18
62 -16 0 3 10 -1 23 -8 12 -7 25 -13 30 -14 4 -1 8 -2 10 -4 3 -2 40 -11 55
-12 6 -1 12 -5 12 -10 0 -5 5 -6 10 -3 6 3 10 1 10 -4 0 -6 3 -10 8 -9 13 4
152 -65 152 -75 0 -6 3 -7 7 -4 9 10 73 -62 73 -82 0 -23 -28 -61 -46 -61 -8
0 -14 -4 -14 -9 0 -5 -10 -12 -22 -16 -13 -4 -25 -8 -28 -10 -3 -1 -21 -9 -40
-17 -19 -9 -38 -14 -42 -12 -5 3 -8 1 -8 -4 0 -8 -63 -27 -123 -37 -15 -2 -31
-6 -36 -9 -4 -3 -23 -8 -42 -11 -47 -9 -64 -13 -64 -15 0 -1 -11 -3 -25 -5
-14 -2 -41 -7 -60 -10 -19 -3 -46 -8 -60 -10 -14 -1 -38 -5 -55 -8 -16 -3 -55
-9 -85 -12 -30 -4 -62 -9 -70 -10 -14 -2 -99 -12 -190 -21 -19 -2 -64 -6 -100
-8 -36 -3 -94 -8 -130 -11 -36 -3 -96 -8 -135 -10 -38 -2 -119 -7 -180 -11
-141 -10 -1151 -10 -1315 0 -142 8 -183 11 -295 21 -44 4 -98 8 -120 10 -87 7
-163 16 -186 20 -13 3 -44 8 -69 11 -45 5 -71 9 -132 20 -18 3 -44 7 -58 9
-68 9 -275 68 -320 92 -14 7 -29 13 -33 13 -4 0 -15 6 -23 13 -67 55 -70 82
-16 138 22 21 42 36 45 32 4 -3 7 -1 7 5 0 7 7 12 15 12 8 0 15 5 15 11 0 5 4
8 9 4 5 -3 12 -1 15 4 10 16 220 106 238 103 5 -1 8 3 8 8 0 11 -2 11 -135
-21 -89 -22 -201 -64 -227 -87 -10 -8 -18 -11 -18 -6 0 18 -90 -88 -92 -109 0
-12 -2 -29 -3 -37 -3 -26 48 -110 77 -128 15 -9 28 -19 28 -23 0 -18 301 -145
314 -132 3 4 6 1 6 -5 0 -7 3 -11 8 -10 10 2 85 -13 97 -20 5 -3 16 -7 25 -9
8 -1 35 -7 60 -13 25 -6 56 -12 70 -15 14 -2 36 -6 50 -10 58 -14 74 -17 165
-30 28 -3 61 -9 75 -12 14 -2 41 -7 60 -9 19 -2 49 -6 65 -8 32 -4 127 -15
185 -21 127 -13 183 -17 245 -21 39 -2 115 -6 170 -9 131 -9 702 -9 830 0 55
3 138 8 185 10 47 2 108 7 135 10 28 3 82 8 120 11 39 3 81 7 95 10 14 3 43 7
65 9 22 3 56 7 75 10 19 3 51 7 70 9 19 2 35 4 35 6 0 2 31 7 93 14 29 3 57 8
63 11 5 4 28 9 52 12 52 6 82 11 82 13 0 1 11 4 25 7 38 7 55 11 58 13 1 2 5
3 10 4 4 1 13 5 21 10 9 6 12 5 8 -1 -7 -11 46 5 72 21 9 6 12 5 8 -1 -4 -6
17 -3 46 7 28 10 84 28 122 40 39 12 80 28 93 36 12 8 22 12 22 8 0 -4 7 -1
15 6 8 7 15 9 15 6 0 -4 10 2 22 13 11 11 25 18 29 15 4 -2 10 0 14 6 4 6 10
8 15 5 4 -3 10 2 14 10 3 8 10 15 16 15 21 0 93 76 111 117 28 66 13 114 -55
175 -34 32 -132 81 -186 94 -8 2 -40 10 -70 18 -30 8 -68 17 -85 20 -16 3 -41
8 -55 11 -33 7 -84 15 -143 20 -27 3 -54 8 -60 11 -9 5 -9 4 -1 -5z"/>
<path d="M4085 2334 c-27 -7 -77 -19 -110 -25 -33 -6 -85 -15 -115 -21 -30 -6
-73 -12 -95 -13 -22 -2 -51 -7 -65 -12 -14 -5 -47 -11 -75 -12 -27 -2 -54 -6
-60 -11 -5 -4 -43 -8 -84 -9 -41 -1 -77 -3 -80 -5 -3 -2 -91 -9 -196 -15 -233
-14 -345 -29 -345 -45 0 -7 29 -100 66 -207 36 -107 66 -198 68 -204 2 -5 6
-19 10 -30 23 -60 27 -72 31 -95 2 -14 11 -41 18 -60 25 -62 48 -133 79 -242
l32 -108 694 0 c551 0 693 3 690 13 -3 6 -31 91 -62 187 -32 96 -60 182 -63
190 -3 8 -7 25 -9 38 -1 13 -7 29 -12 35 -5 7 -33 89 -62 182 -29 94 -55 177
-58 185 -3 8 -7 20 -9 25 -1 6 -23 69 -47 140 -50 146 -49 146 -141 119z"/>
<path d="M977 2313 c-3 -4 -11 -28 -18 -53 -15 -55 -14 -51 -22 -72 -4 -10
-10 -26 -14 -35 -9 -25 -9 -24 -17 -65 -5 -21 -12 -38 -17 -38 -5 0 -8 -3 -8
-7 1 -5 0 -10 -1 -13 -1 -3 -3 -13 -5 -22 -6 -33 -28 -93 -38 -105 -5 -7 -7
-13 -3 -13 3 0 0 -15 -7 -32 -13 -31 -16 -39 -22 -63 -5 -19 -57 -180 -62
-195 -4 -8 -7 -17 -8 -20 -1 -3 -4 -12 -7 -20 -10 -25 -102 -314 -104 -325 -1
-7 222 -11 682 -11 l683 -1 16 41 c9 23 17 49 19 56 2 8 6 22 9 30 8 18 39
111 42 125 1 6 5 17 8 25 8 20 180 542 183 555 1 6 9 30 18 54 26 71 26 70
-71 71 -49 1 -119 3 -158 5 -168 10 -232 15 -260 18 -16 3 -66 8 -110 12 -113
10 -145 13 -190 19 -22 3 -58 8 -80 11 -22 2 -51 7 -65 10 -14 3 -47 8 -75 11
-27 4 -71 12 -97 19 -25 6 -58 11 -72 10 -14 0 -26 2 -26 6 0 3 -6 6 -12 6 -7
1 -29 4 -50 7 -20 4 -38 3 -41 -1z"/>
<path d="M1708 705 l4 -45 44 0 44 0 0 45 0 45 -48 0 -47 0 3 -45z"/>
<path d="M1890 705 l0 -45 45 0 45 0 0 45 0 45 -45 0 -45 0 0 -45z"/>
<path d="M4020 460 l0 -290 130 0 c146 0 181 9 223 59 34 41 49 97 46 179 -3
97 -43 165 -112 191 -16 6 -66 11 -113 11 l-84 0 0 70 0 70 -45 0 -45 0 0
-290z m250 45 c39 -20 57 -59 58 -122 0 -42 -5 -58 -28 -85 -26 -31 -31 -33
-109 -36 l-81 -4 0 131 0 131 65 0 c39 0 78 -6 95 -15z"/>
<path d="M491 638 c-24 -56 -98 -220 -124 -278 -11 -25 -21 -47 -21 -50 -1 -3
-14 -31 -29 -64 -15 -32 -27 -62 -27 -67 0 -5 27 -9 60 -9 39 0 60 4 60 12 0
6 8 29 18 49 l17 38 123 1 123 0 21 -50 21 -50 58 0 c33 0 59 2 59 4 0 2 -12
30 -26 62 -41 92 -63 144 -63 147 0 1 -13 29 -29 62 -16 33 -46 99 -67 148
l-37 87 -60 0 -59 0 -18 -42z m87 -85 c-1 -5 3 -19 9 -33 27 -65 63 -154 63
-157 0 -2 -36 -3 -80 -3 -44 0 -80 4 -80 8 0 11 47 127 66 165 14 25 26 36 22
20z"/>
<path d="M950 592 c-25 -12 -43 -33 -63 -72 -24 -48 -28 -65 -26 -138 2 -93
22 -144 74 -184 26 -21 42 -23 152 -26 l123 -4 0 46 0 46 -87 1 c-49 1 -91 1
-95 0 -13 -2 -49 33 -64 62 -19 36 -15 110 8 148 24 40 54 49 154 49 l84 0 0
45 0 45 -112 0 c-85 -1 -122 -5 -148 -18z"/>
<path d="M1378 603 c-10 -2 -18 -9 -18 -14 0 -5 -6 -9 -13 -9 -39 0 -77 -99
-76 -195 1 -78 12 -118 48 -164 31 -40 73 -51 197 -51 l101 0 1 45 1 45 -87 0
c-49 0 -98 6 -111 13 -80 40 -76 207 5 237 14 6 63 10 110 10 l84 0 0 45 0 45
-112 -1 c-62 -1 -121 -3 -130 -6z"/>
<path d="M1710 390 l0 -220 45 0 45 0 0 220 0 220 -45 0 -45 0 0 -220z"/>
<path d="M1890 376 c0 -231 0 -235 -22 -250 -12 -9 -36 -16 -53 -16 -30 0 -31
-1 -31 -45 l0 -45 54 0 c33 0 65 7 83 17 55 32 59 57 59 327 l0 246 -45 0 -45
0 0 -234z"/>
<path d="M2058 390 l3 -220 44 0 45 0 0 175 0 175 65 0 c71 0 117 -17 135 -49
5 -11 10 -83 10 -160 l0 -141 45 0 45 0 0 160 c0 256 -23 280 -264 280 l-131
0 3 -220z"/>
<path d="M2520 565 l0 -44 124 -3 125 -3 -81 -85 c-44 -47 -100 -106 -124
-132 -37 -39 -44 -53 -44 -87 l0 -41 190 0 190 0 0 45 0 44 -124 3 -125 3 87
91 c166 174 162 169 162 214 l0 40 -190 0 -190 0 0 -45z"/>
<path d="M3033 583 c-23 -15 -49 -43 -58 -63 -38 -77 -28 -239 18 -291 42 -49
76 -59 202 -59 l115 0 0 44 0 44 -104 4 c-95 3 -107 6 -125 27 -41 47 -32 51
104 51 l125 0 0 45 0 45 -125 0 c-138 0 -146 4 -101 57 22 26 29 27 125 31
l101 4 0 44 0 44 -117 0 c-111 0 -120 -2 -160 -27z"/>
<path d="M3390 390 l0 -220 45 0 45 0 0 176 0 177 82 -5 c73 -4 84 -8 105 -32
22 -26 23 -35 23 -172 l0 -144 45 0 45 0 0 149 c0 172 -4 199 -35 235 -39 45
-81 56 -225 56 l-130 0 0 -220z"/>
<path d="M4565 596 c-37 -16 -82 -67 -93 -104 -4 -15 -7 -63 -7 -108 0 -96 21
-149 74 -185 31 -21 48 -24 156 -27 l121 -4 0 45 -1 45 -104 4 c-100 3 -104 4
-127 33 -12 16 -21 32 -18 37 3 4 60 8 127 8 l122 0 1 45 0 45 -123 0 c-111 0
-123 2 -123 18 1 50 49 72 157 72 l88 0 1 45 0 45 -110 0 c-70 -1 -122 -6
-141 -14z"/>
<path d="M3840 220 l0 -50 50 0 50 0 0 50 0 50 -50 0 -50 0 0 -50z"/>
</g>
</svg>
